HIERARCHY
ROOT Root
{
  OFFSET 0.0 0.0 0.0
  CHANNELS 6 Xposition Yposition Zposition Zrotation Yrotation Xrotation
  JOINT Hips
  {
    OFFSET 0.0 100.0 0.0
    CHANNELS 6 Xposition Yposition Zposition Zrotation Yrotation Xrotation
    JOINT Spine1
    {
      OFFSET 5.003913 -0.037094 -0.013727
      CHANNELS 3 Zrotation Yrotation Xrotation
      JOINT Spine2
      {
        OFFSET 7.125363 -1e-06 0.0
        CHANNELS 3 Zrotation Yrotation Xrotation
        JOINT Chest
        {
          OFFSET 7.594027 1e-06 0.0
          CHANNELS 3 Zrotation Yrotation Xrotation
          JOINT Neck1
          {
            OFFSET 26.313086 -0.460272 -0.181672
            CHANNELS 3 Zrotation Yrotation Xrotation
            JOINT Neck2
            {
              OFFSET 8.045911 0.0 0.0
              CHANNELS 3 Zrotation Yrotation Xrotation
              JOINT Head
              {
                OFFSET 6.432774 0.0 0.0
                CHANNELS 3 Zrotation Yrotation Xrotation
                JOINT HeadEnd
                {
                  OFFSET 16.169773 0.06451 0.00362
                  CHANNELS 3 Zrotation Yrotation Xrotation
                }
                JOINT Jaw
                {
                  OFFSET 0.108741 3.12938 0.002639
                  CHANNELS 3 Zrotation Yrotation Xrotation
                }
                JOINT LeftEye
                {
                  OFFSET 4.45173 8.166359 3.206392
                  CHANNELS 3 Zrotation Yrotation Xrotation
                }
                JOINT RightEye
                {
                  OFFSET 4.436895 8.135758 -3.222429
                  CHANNELS 3 Zrotation Yrotation Xrotation
                }
              }
            }
          }
          JOINT LeftShoulder
          {
            OFFSET 23.218927 5.195579 1.621656
            CHANNELS 3 Zrotation Yrotation Xrotation
            JOINT LeftArm
            {
              OFFSET 15.902118 2e-06 -2e-06
              CHANNELS 3 Zrotation Yrotation Xrotation
              JOINT LeftForeArm
              {
                OFFSET 28.739307 0.0 -1e-06
                CHANNELS 3 Zrotation Yrotation Xrotation
                JOINT LeftHand
                {
                  OFFSET 27.093981 -4e-06 0.0
                  CHANNELS 3 Zrotation Yrotation Xrotation
                  JOINT LeftHandThumb1
                  {
                    OFFSET 2.276781 3.380274 0.83384
                    CHANNELS 3 Zrotation Yrotation Xrotation
                    JOINT LeftHandThumb2
                    {
                      OFFSET 4.705309 -1e-06 -1e-06
                      CHANNELS 3 Zrotation Yrotation Xrotation
                      JOINT LeftHandThumb3
                      {
                        OFFSET 2.798515 0.0 3e-06
                        CHANNELS 3 Zrotation Yrotation Xrotation
                        JOINT LeftHandThumbEnd
                        {
                          OFFSET 3.180793 4e-06 -4e-06
                          CHANNELS 3 Zrotation Yrotation Xrotation
                        }
                      }
                    }
                  }
                  JOINT LeftHandIndex1
                  {
                    OFFSET 3.247786 2.352677 0.137192
                    CHANNELS 3 Zrotation Yrotation Xrotation
                    JOINT LeftHandIndex2
                    {
                      OFFSET 6.367095 1e-06 0.0
                      CHANNELS 3 Zrotation Yrotation Xrotation
                      JOINT LeftHandIndex3
                      {
                        OFFSET 3.662364 0.0 0.0
                        CHANNELS 3 Zrotation Yrotation Xrotation
                        JOINT LeftHandIndex4
                        {
                          OFFSET 2.329242 4e-06 -4e-06
                          CHANNELS 3 Zrotation Yrotation Xrotation
                          JOINT LeftHandIndexEnd
                          {
                            OFFSET 2.767823 1e-06 0.0
                            CHANNELS 3 Zrotation Yrotation Xrotation
                          }
                        }
                      }
                    }
                  }
                  JOINT LeftHandMiddle1
                  {
                    OFFSET 3.163612 0.945023 -0.406112
                    CHANNELS 3 Zrotation Yrotation Xrotation
                    JOINT LeftHandMiddle2
                    {
                      OFFSET 6.276789 3e-06 0.0
                      CHANNELS 3 Zrotation Yrotation Xrotation
                      JOINT LeftHandMiddle3
                      {
                        OFFSET 4.35652 -1e-06 4e-06
                        CHANNELS 3 Zrotation Yrotation Xrotation
                        JOINT LeftHandMiddle4
                        {
                          OFFSET 2.996877 0.0 8e-06
                          CHANNELS 3 Zrotation Yrotation Xrotation
                          JOINT LeftHandMiddleEnd
                          {
                            OFFSET 2.323256 3e-06 -4e-06
                            CHANNELS 3 Zrotation Yrotation Xrotation
                          }
                        }
                      }
                    }
                  }
                  JOINT LeftHandRing1
                  {
                    OFFSET 2.882606 -0.309162 0.107445
                    CHANNELS 3 Zrotation Yrotation Xrotation
                    JOINT LeftHandRing2
                    {
                      OFFSET 6.033198 0.0 4e-06
                      CHANNELS 3 Zrotation Yrotation Xrotation
                      JOINT LeftHandRing3
                      {
                        OFFSET 4.350578 3e-06 0.0
                        CHANNELS 3 Zrotation Yrotation Xrotation
                        JOINT LeftHandRing4
                        {
                          OFFSET 2.651321 2e-06 -7e-06
                          CHANNELS 3 Zrotation Yrotation Xrotation
                          JOINT LeftHandRingEnd
                          {
                            OFFSET 1.937663 1e-06 -4e-06
                            CHANNELS 3 Zrotation Yrotation Xrotation
                          }
                        }
                      }
                    }
                  }
                  JOINT LeftHandPinky1
                  {
                    OFFSET 2.865315 -1.525436 0.575687
                    CHANNELS 3 Zrotation Yrotation Xrotation
                    JOINT LeftHandPinky2
                    {
                      OFFSET 5.54936 1e-06 -8e-06
                      CHANNELS 3 Zrotation Yrotation Xrotation
                      JOINT LeftHandPinky3
                      {
                        OFFSET 3.070974 0.0 -4e-06
                        CHANNELS 3 Zrotation Yrotation Xrotation
                        JOINT LeftHandPinky4
                        {
                          OFFSET 1.549672 1e-06 0.0
                          CHANNELS 3 Zrotation Yrotation Xrotation
                          JOINT LeftHandPinkyEnd
                          {
                            OFFSET 1.952123 0.0 0.0
                            CHANNELS 3 Zrotation Yrotation Xrotation
                          }
                        }
                      }
                    }
                  }
                }
              }
            }
          }
          JOINT RightShoulder
          {
            OFFSET 23.161716 5.296122 -1.380114
            CHANNELS 3 Zrotation Yrotation Xrotation
            JOINT RightArm
            {
              OFFSET -16.027195 -2e-06 1.1e-05
              CHANNELS 3 Zrotation Yrotation Xrotation
              JOINT RightForeArm
              {
                OFFSET -28.736639 4e-06 2e-06
                CHANNELS 3 Zrotation Yrotation Xrotation
                JOINT RightHand
                {
                  OFFSET -27.133619 6e-06 0.0
                  CHANNELS 3 Zrotation Yrotation Xrotation
                  JOINT RightHandThumb1
                  {
                    OFFSET -2.274328 -3.351035 -0.83067
                    CHANNELS 3 Zrotation Yrotation Xrotation
                    JOINT RightHandThumb2
                    {
                      OFFSET -4.703594 -3e-06 2e-06
                      CHANNELS 3 Zrotation Yrotation Xrotation
                      JOINT RightHandThumb3
                      {
                        OFFSET -2.794935 -4e-06 -3e-06
                        CHANNELS 3 Zrotation Yrotation Xrotation
                        JOINT RightHandThumbEnd
                        {
                          OFFSET -3.183852 4e-06 1e-06
                          CHANNELS 3 Zrotation Yrotation Xrotation
                        }
                      }
                    }
                  }
                  JOINT RightHandIndex1
                  {
                    OFFSET -3.253496 -2.33755 -0.127667
                    CHANNELS 3 Zrotation Yrotation Xrotation
                    JOINT RightHandIndex2
                    {
                      OFFSET -6.344434 0.0 0.0
                      CHANNELS 3 Zrotation Yrotation Xrotation
                      JOINT RightHandIndex3
                      {
                        OFFSET -3.654871 0.0 -8e-06
                        CHANNELS 3 Zrotation Yrotation Xrotation
                        JOINT RightHandIndex4
                        {
                          OFFSET -2.327586 -1e-06 0.0
                          CHANNELS 3 Zrotation Yrotation Xrotation
                          JOINT RightHandIndexEnd
                          {
                            OFFSET -2.770001 3e-06 8e-06
                            CHANNELS 3 Zrotation Yrotation Xrotation
                          }
                        }
                      }
                    }
                  }
                  JOINT RightHandMiddle1
                  {
                    OFFSET -3.168223 -0.944764 0.411762
                    CHANNELS 3 Zrotation Yrotation Xrotation
                    JOINT RightHandMiddle2
                    {
                      OFFSET -6.266691 -1e-06 -4e-06
                      CHANNELS 3 Zrotation Yrotation Xrotation
                      JOINT RightHandMiddle3
                      {
                        OFFSET -4.348901 0.0 0.0
                        CHANNELS 3 Zrotation Yrotation Xrotation
                        JOINT RightHandMiddle4
                        {
                          OFFSET -3.00024 2e-06 -4e-06
                          CHANNELS 3 Zrotation Yrotation Xrotation
                          JOINT RightHandMiddleEnd
                          {
                            OFFSET -2.321477 -4e-06 -4e-06
                            CHANNELS 3 Zrotation Yrotation Xrotation
                          }
                        }
                      }
                    }
                  }
                  JOINT RightHandRing1
                  {
                    OFFSET -2.885654 0.293261 -0.119232
                    CHANNELS 3 Zrotation Yrotation Xrotation
                    JOINT RightHandRing2
                    {
                      OFFSET -6.032835 -1e-06 -4e-06
                      CHANNELS 3 Zrotation Yrotation Xrotation
                      JOINT RightHandRing3
                      {
                        OFFSET -4.33881 0.0 -4e-06
                        CHANNELS 3 Zrotation Yrotation Xrotation
                        JOINT RightHandRing4
                        {
                          OFFSET -2.654903 -4e-06 -4e-06
                          CHANNELS 3 Zrotation Yrotation Xrotation
                          JOINT RightHandRingEnd
                          {
                            OFFSET -1.935122 0.0 4e-06
                            CHANNELS 3 Zrotation Yrotation Xrotation
                          }
                        }
                      }
                    }
                  }
                  JOINT RightHandPinky1
                  {
                    OFFSET -2.866241 1.503904 -0.60527
                    CHANNELS 3 Zrotation Yrotation Xrotation
                    JOINT RightHandPinky2
                    {
                      OFFSET -5.553177 -2e-06 0.0
                      CHANNELS 3 Zrotation Yrotation Xrotation
                      JOINT RightHandPinky3
                      {
                        OFFSET -3.062664 -1e-06 -4e-06
                        CHANNELS 3 Zrotation Yrotation Xrotation
                        JOINT RightHandPinky4
                        {
                          OFFSET -1.546529 2e-06 4e-06
                          CHANNELS 3 Zrotation Yrotation Xrotation
                          JOINT RightHandPinkyEnd
                          {
                            OFFSET -1.952341 0.0 -4e-06
                            CHANNELS 3 Zrotation Yrotation Xrotation
                          }
                        }
                      }
                    }
                  }
                }
              }
            }
          }
        }
      }
    }
    JOINT LeftLeg
    {
      OFFSET -8.443107 2.567604 10.043214
      CHANNELS 3 Zrotation Yrotation Xrotation
      JOINT LeftShin
      {
        OFFSET 43.229198 1e-06 -1e-06
        CHANNELS 3 Zrotation Yrotation Xrotation
        JOINT LeftFoot
        {
          OFFSET 42.298611 1e-06 1e-06
          CHANNELS 3 Zrotation Yrotation Xrotation
          JOINT LeftToeBase
          {
            OFFSET 14.165858 1e-06 0.0
            CHANNELS 3 Zrotation Yrotation Xrotation
            JOINT LeftToeEnd
            {
              OFFSET 6.7141 -0.234461 0.0
              CHANNELS 3 Zrotation Yrotation Xrotation
            }
          }
        }
      }
    }
    JOINT RightLeg
    {
      OFFSET -8.303923 2.592729 -10.047278
      CHANNELS 3 Zrotation Yrotation Xrotation
      JOINT RightShin
      {
        OFFSET -43.369682 0.0 1e-06
        CHANNELS 3 Zrotation Yrotation Xrotation
        JOINT RightFoot
        {
          OFFSET -42.260784 4e-06 2e-06
          CHANNELS 3 Zrotation Yrotation Xrotation
          JOINT RightToeBase
          {
            OFFSET -14.222245 -2e-06 -1e-06
            CHANNELS 3 Zrotation Yrotation Xrotation
            JOINT RightToeEnd
            {
              OFFSET -6.660062 0.232574 -2e-06
              CHANNELS 3 Zrotation Yrotation Xrotation
            }
          }
        }
      }
    }
  }
}
MOTION
Frames: 5
Frame Time: 0.03333333333333333
0.0 0.0 0.0 0.0 -0.0 0.0 0.82746 99.789688 1.112652 88.263916 8.434252 90.114334 -4.449848 -0.754812 0.147404 -13.369233 -0.859232 -1.267732 30.260191 2.642735 -2.134632 44.080917 -1.968091 2.430917 -2.768973 -1.189474 0.035717 -28.170046 -2.061491 0.542796 5e-06 0.0 -0.0 -0.05211 0.034867 -0.041318 0.191692 0.070851 0.00206 0.144632 0.003125 -0.0764 -83.708282 -74.054169 98.7034 64.361374 -63.246296 2.18329 20.499538 0.127997 0.037646 -1.570739 -4.721191 -2.620733 17.636627 -26.322729 52.411179 -19.46666 -14.395597 29.410381 -2e-06 -8.774819 -1e-06 16.659477 -18.058071 5.917214 -0.609776 -1.795653 -3.889328 -4.807086 -11.046807 -2.937851 6e-06 -20.976011 -1e-06 -5.019969 -25.033554 -4.031878 7e-06 0.0 -0.0 -10.634531 -5.686968 -3.565587 10.573277 -17.922951 -3.113901 4e-06 -13.821208 1e-06 -0.501776 -31.181498 -4.027011 -11.471089 -60.091343 7.372309 -13.982712 -7.150195 -2.875042 13.772731 -8.401492 -3.218242 0.347735 -34.211544 0.771659 -0.963029 -17.73337 2.621023 0.0 2e-06 1e-06 -17.346413 -20.095209 -4.201784 21.757555 -1.638377 3.866423 2e-06 -6.338821 0.0 -1.697587 -22.591738 -6.194 1e-06 -4e-06 -3e-06 73.266441 -76.25563 123.067757 61.091385 -58.871429 0.176119 23.923664 -0.404998 -0.031765 -4.421483 -2.327302 3.873548 22.182112 -20.375891 49.933319 -16.701813 -16.743528 28.476532 -3e-06 -12.690603 -4e-06 16.165453 -17.559702 2.568973 -0.10592 -1.513857 -4.275879 -5.039041 -5.612871 -2.953556 3e-06 -11.020525 0.0 -6.111297 -15.895336 -3.840474 -1e-06 1e-06 1e-06 -10.283371 -5.680288 -4.341836 11.028296 -11.302405 -2.372634 -1.384267 -14.238582 -6.320125 -0.625438 -26.924191 -3.8276 -4.463537 -49.995956 -3.704051 -13.708526 -7.363477 -3.720942 18.14115 -14.052739 -3.242675 7e-06 -18.78727 -4e-06 -0.429711 -8.456042 2.555507 0.0 1e-06 0.0 -15.923536 -20.094482 -5.473583 30.41921 -7.190826 1.735926 2e-06 -8.162925 1e-06 -1.8619 -22.861469 -6.167944 -1e-06 -1e-06 -1e-06 -171.066772 -3.663604 -7.027886 12.208585 0.008891 -0.038611 -81.611809 -2.575364 -5.103657 -4.999292 1.400762 2.112747 -0.999999 0.0 0.0 11.562331 -0.846661 0.256577 5.309061 0.083356 -0.048982 -76.433014 -6.214122 -5.630398 -4.18502 0.781094 1.73464 -1.000002 0.0 0.0 
0.0 0.0 0.0 0.0 -0.0 0.0 0.855179 99.826622 1.090747 88.234161 8.355729 90.145744 -4.44648 -0.754373 0.097491 -13.329269 -0.822319 -1.250522 30.172625 2.676278 -2.210176 44.069599 -1.886221 2.40497 -2.763926 -1.158733 0.04267 -28.166225 -2.064574 0.531849 6e-06 -0.0 0.0 -0.051221 0.026364 -0.023395 0.191154 0.056762 0.019959 0.14237 0.000455 -0.059198 -83.155884 -74.115768 98.161346 64.446114 -63.380775 2.267212 20.311968 0.070076 -0.010906 -1.374221 -4.925532 -2.606258 17.636637 -26.322741 52.411201 -19.466665 -14.395602 29.410393 -2e-06 -8.774822 0.0 16.664108 -18.036551 5.882838 -0.609776 -1.795654 -3.889325 -4.807088 -11.046811 -2.937853 5e-06 -20.976021 -1e-06 -5.01997 -25.033562 -4.031882 7e-06 2e-06 -1e-06 -10.634537 -5.686971 -3.56559 10.573278 -17.922955 -3.113901 2e-06 -13.821211 1e-06 -0.501778 -31.181505 -4.027013 -11.354998 -60.053802 7.331206 -13.982716 -7.150198 -2.875041 13.772733 -8.401494 -3.218244 0.347736 -34.211555 0.771657 -0.963028 -17.73337 2.62102 -1e-06 0.0 0.0 -17.34642 -20.095217 -4.201784 21.757561 -1.638376 3.866427 2e-06 -6.338825 -0.0 -1.697588 -22.591749 -6.194003 -1e-06 -6e-06 -1e-06 73.375664 -76.216911 123.021461 61.127846 -58.709118 -0.397131 23.890446 -0.461779 -0.040679 -4.360754 -2.203177 3.633762 22.182114 -20.3759 49.933323 -16.701813 -16.74353 28.476534 -4e-06 -12.690601 -1e-06 16.151966 -17.552662 2.542871 -0.10592 -1.513855 -4.275881 -5.03904 -5.61287 -2.953555 4e-06 -11.02052 0.0 -6.111296 -15.89533 -3.840471 -0.0 -2e-06 1e-06 -10.283369 -5.680287 -4.341843 11.028294 -11.302402 -2.372632 -1.384268 -14.238577 -6.32012 -0.625441 -26.924185 -3.827597 -4.490507 -50.046227 -3.652374 -13.708525 -7.363474 -3.720939 18.141148 -14.052736 -3.242673 6e-06 -18.78727 -0.0 -0.429712 -8.456041 2.555506 -0.0 1e-06 -1e-06 -15.923536 -20.094481 -5.473586 30.419214 -7.190827 1.735927 3e-06 -8.162927 1e-06 -1.861903 -22.861467 -6.167938 1e-06 -2e-06 -1e-06 -171.0103 -3.686067 -7.043123 11.871199 0.018197 -0.00301 -81.439438 -2.49986 -5.207916 -5.023726 1.415709 2.118864 -0.999999 -0.0 0.0 11.483059 -0.810833 0.247009 5.289612 0.079342 -0.032145 -76.251122 -6.283391 -5.612163 -4.167169 0.7642 1.732435 -1.000002 -0.0 0.0 
0.0 0.0 0.0 0.0 -0.0 0.0 0.872546 99.840805 1.083277 88.225754 8.327728 90.174362 -4.421149 -0.774868 0.067146 -13.312228 -0.812057 -1.274765 30.160374 2.72257 -2.265152 44.099369 -1.742725 2.38531 -2.786617 -1.146324 0.080937 -28.207588 -2.064016 0.511215 6e-06 0.0 0.0 -0.050495 0.023501 -0.013852 0.169086 0.046593 0.028559 0.119838 0.005117 -0.049354 -82.464348 -74.227745 97.477997 64.510139 -63.50227 2.543801 20.21866 0.040587 -0.052369 -1.201494 -5.197454 -2.748918 17.636627 -26.322739 52.411201 -19.466663 -14.395598 29.410393 -3e-06 -8.774821 -1e-06 16.67897 -18.025949 5.877407 -0.609776 -1.795654 -3.889327 -4.807086 -11.046811 -2.937853 6e-06 -20.976019 -2e-06 -5.019968 -25.03356 -4.03188 7e-06 0.0 -0.0 -10.634534 -5.68697 -3.565587 10.573277 -17.922955 -3.1139 2e-06 -13.821212 3e-06 -0.501779 -31.181505 -4.02701 -11.316384 -60.025764 7.291703 -13.982714 -7.150197 -2.875043 13.772731 -8.401496 -3.218244 0.347734 -34.211555 0.771658 -0.963024 -17.733372 2.62102 -2e-06 0.0 0.0 -17.346413 -20.095217 -4.201779 21.757557 -1.638376 3.866427 2e-06 -6.338824 1e-06 -1.697587 -22.591753 -6.194004 0.0 -4e-06 -2e-06 73.430679 -76.164047 123.003441 61.06271 -58.54192 -1.029845 23.893394 -0.533712 -0.041459 -4.319515 -1.969449 3.368366 22.182112 -20.375896 49.933323 -16.701817 -16.74353 28.476538 -3e-06 -12.690603 -2e-06 16.16503 -17.539188 2.51552 -0.10592 -1.513856 -4.275885 -5.039041 -5.612872 -2.953554 5e-06 -11.020526 1e-06 -6.111297 -15.895334 -3.840473 -1e-06 0.0 -0.0 -10.283371 -5.680288 -4.341838 11.028296 -11.302406 -2.372632 -1.384267 -14.238582 -6.320124 -0.625442 -26.924191 -3.827597 -4.487954 -50.053436 -3.645546 -13.708525 -7.363475 -3.72094 18.14115 -14.052739 -3.242675 7e-06 -18.787271 -2e-06 -0.42971 -8.456043 2.555504 -0.0 2e-06 0.0 -15.923532 -20.094484 -5.473588 30.419218 -7.190826 1.735924 2e-06 -8.162926 -1e-06 -1.861902 -22.861469 -6.167943 0.0 -5e-06 -2e-06 -170.988281 -3.683007 -6.987454 11.738629 0.016843 0.011756 -81.37188 -2.50329 -5.259809 -5.016777 1.418739 2.12184 -0.999999 1e-06 0.0 11.459313 -0.796372 0.247494 5.271203 0.077884 -0.020711 -76.171509 -6.383701 -5.608107 -4.122358 0.758417 1.73159 -1.000001 -0.0 0.0 
0.0 0.0 0.0 0.0 -0.0 0.0 0.869033 99.845398 1.081565 88.230995 8.318709 90.195808 -4.381871 -0.809599 0.047777 -13.302201 -0.814937 -1.318854 30.167269 2.766447 -2.307504 44.160439 -1.590579 2.378309 -2.810747 -1.133977 0.127472 -28.34819 -2.05341 0.520086 6e-06 0.0 -0.0 -0.047172 0.023173 -0.011669 0.152861 0.043128 0.030448 0.102525 0.008163 -0.047351 -81.813339 -74.347595 96.865089 64.588249 -63.536327 3.006844 20.198853 0.036491 -0.076219 -1.044116 -5.4233 -2.895397 17.636629 -26.322733 52.411201 -19.466658 -14.395598 29.410389 1e-06 -8.774822 -2e-06 16.658386 -17.991243 5.88908 -0.609776 -1.795654 -3.889327 -4.807088 -11.04681 -2.937852 2e-06 -20.976015 -2e-06 -5.019971 -25.033558 -4.031882 7e-06 0.0 -1e-06 -10.634535 -5.686972 -3.56559 10.573272 -17.922949 -3.1139 -0.0 -13.821208 1e-06 -0.50178 -31.181501 -4.027017 -11.293651 -59.99876 7.25736 -13.982714 -7.150198 -2.875046 13.772728 -8.401491 -3.21824 0.347732 -34.211552 0.771656 -0.963027 -17.73337 2.621018 -1e-06 0.0 0.0 -17.346416 -20.095217 -4.201783 21.757557 -1.638374 3.866429 1e-06 -6.338822 1e-06 -1.697591 -22.591742 -6.194005 -2e-06 -5e-06 -2e-06 73.357986 -76.111992 123.133598 60.934132 -58.337502 -1.525481 23.899498 -0.545707 -0.031768 -4.287871 -1.780056 3.027675 22.182116 -20.3759 49.933323 -16.701811 -16.743532 28.476532 -3e-06 -12.690601 1e-06 16.177488 -17.511839 2.498663 -0.105919 -1.513856 -4.275881 -5.039041 -5.61287 -2.953556 4e-06 -11.020523 0.0 -6.111297 -15.89533 -3.840474 -0.0 -0.0 -0.0 -10.283372 -5.680288 -4.341841 11.028295 -11.302404 -2.372632 -1.384267 -14.238578 -6.320121 -0.625437 -26.924183 -3.827597 -4.470019 -50.001232 -3.644288 -13.708526 -7.363476 -3.720938 18.141153 -14.052739 -3.242676 7e-06 -18.787268 -3e-06 -0.429713 -8.456041 2.555506 1e-06 0.0 -1e-06 -15.923536 -20.094482 -5.473588 30.419214 -7.190825 1.735926 3e-06 -8.162925 1e-06 -1.861899 -22.861467 -6.167938 -1e-06 -4e-06 -2e-06 -170.975403 -3.675504 -6.931009 11.677537 0.011618 0.016261 -81.339027 -2.540027 -5.281832 -5.006812 1.413902 2.121757 -0.999999 -0.0 0.0 11.452178 -0.799424 0.207794 5.260616 0.076746 -0.021867 -76.144859 -6.42665 -5.606889 -4.091838 0.746382 1.727812 -1.0 -0.0 0.0 
0.0 0.0 0.0 0.0 -0.0 0.0 0.854824 99.848106 1.077006 88.23838 8.304842 90.239037 -4.34901 -0.841514 0.039948 -13.297491 -0.829009 -1.369125 30.182459 2.805822 -2.35928 44.204887 -1.412177 2.372066 -2.820726 -1.116517 0.19969 -28.509306 -2.022985 0.55001 7e-06 -0.0 0.0 -0.041095 0.022498 -0.008789 0.148436 0.041026 0.032463 0.096851 0.009193 -0.043895 -81.148102 -74.466515 96.262962 64.790054 -63.486938 3.426023 20.217308 0.037809 -0.084828 -0.902112 -5.586952 -2.93425 17.636629 -26.322731 52.411201 -19.466663 -14.395598 29.410389 -2e-06 -8.774821 -3e-06 16.596506 -17.947086 5.930526 -0.609776 -1.795654 -3.889326 -4.807087 -11.046809 -2.93785 6e-06 -20.976017 -1e-06 -5.019966 -25.033554 -4.03188 8e-06 -1e-06 -2e-06 -10.634535 -5.686969 -3.565585 10.573278 -17.922951 -3.113904 4e-06 -13.821209 0.0 -0.501776 -31.181505 -4.027014 -11.289084 -59.96114 7.265471 -13.982714 -7.150197 -2.875041 13.772731 -8.401495 -3.218243 0.347737 -34.211555 0.771655 -0.963027 -17.73337 2.62102 -3e-06 0.0 1e-06 -17.346416 -20.095217 -4.201781 21.757561 -1.638378 3.866428 1e-06 -6.338822 -0.0 -1.697586 -22.591745 -6.194006 -0.0 -3e-06 -2e-06 73.255211 -76.040657 123.283768 60.80822 -58.148064 -1.892421 23.831116 -0.525523 -0.019226 -4.260258 -1.63765 2.697835 22.182114 -20.375891 49.933323 -16.701818 -16.74353 28.476536 -6e-06 -12.690602 -1e-06 16.182713 -17.496902 2.495182 -0.105918 -1.513855 -4.275887 -5.03904 -5.612871 -2.953554 6e-06 -11.020525 -2e-06 -6.111296 -15.895334 -3.840472 1e-06 -0.0 -1e-06 -10.28337 -5.680286 -4.341844 11.028297 -11.302408 -2.372634 -1.384265 -14.238581 -6.320122 -0.625435 -26.924191 -3.827597 -4.449273 -49.957424 -3.651685 -13.708523 -7.363472 -3.720941 18.141153 -14.05274 -3.24268 1.1e-05 -18.78727 -4e-06 -0.429713 -8.456039 2.555506 -1e-06 2e-06 0.0 -15.923532 -20.094482 -5.473589 30.41921 -7.190828 1.735923 4e-06 -8.162927 1e-06 -1.861901 -22.861469 -6.167938 1e-06 -3e-06 -3e-06 -170.998016 -3.674777 -6.8585 11.667143 0.00346 0.017714 -81.322716 -2.579638 -5.288195 -4.984307 1.410209 2.12122 -1.0 -0.0 0.0 11.443247 -0.799357 0.141262 5.249575 0.074182 -0.024654 -76.129494 -6.449998 -5.634106 -4.066905 0.730731 1.722153 -1.000001 0.0 0.0 
